<mxfile host="65bd71144e">
    <diagram id="J3L29MxLgaI9OFKMJrwk" name="ページ1">
        <mxGraphModel dx="645" dy="540" grid="1" gridSize="10" guides="1" tooltips="1" connect="0" arrows="1" fold="1" page="1" pageScale="1" pageWidth="400" pageHeight="440" background="#ffffff" math="1" shadow="0">
            <root>
                <mxCell id="0"/>
                <mxCell id="1" parent="0"/>
                <mxCell id="2" value="" style="endArrow=classic;html=1;strokeColor=#000000;strokeWidth=1;endFill=1;" parent="1" edge="1">
                    <mxGeometry width="50" height="50" relative="1" as="geometry">
                        <mxPoint x="23" y="610" as="sourcePoint"/>
                        <mxPoint x="343" y="610" as="targetPoint"/>
                    </mxGeometry>
                </mxCell>
                <mxCell id="4" value="" style="endArrow=classic;html=1;strokeColor=#000000;strokeWidth=1;startArrow=none;" parent="1" source="14" edge="1">
                    <mxGeometry width="50" height="50" relative="1" as="geometry">
                        <mxPoint x="183" y="860" as="sourcePoint"/>
                        <mxPoint x="183" y="550" as="targetPoint"/>
                    </mxGeometry>
                </mxCell>
                <mxCell id="5" value="`x`" style="text;html=1;strokeColor=none;fillColor=none;align=center;verticalAlign=middle;whiteSpace=wrap;rounded=0;fillStyle=hatch;fontColor=#000000;fontSize=24;" parent="1" vertex="1">
                    <mxGeometry x="333" y="590" width="60" height="30" as="geometry"/>
                </mxCell>
                <mxCell id="6" value="`y`" style="text;html=1;strokeColor=none;fillColor=none;align=center;verticalAlign=middle;whiteSpace=wrap;rounded=0;fillStyle=hatch;fontColor=#000000;fontSize=24;" parent="1" vertex="1">
                    <mxGeometry x="153" y="510" width="60" height="30" as="geometry"/>
                </mxCell>
                <mxCell id="7" value="" style="endArrow=none;html=1;strokeColor=#000000;strokeWidth=5;fontSize=24;fontColor=#000000;spacing=2;rounded=1;jumpStyle=none;" parent="1" edge="1">
                    <mxGeometry width="50" height="50" relative="1" as="geometry">
                        <mxPoint x="253" y="780" as="sourcePoint"/>
                        <mxPoint x="183" y="610" as="targetPoint"/>
                    </mxGeometry>
                </mxCell>
                <mxCell id="8" value="" style="endArrow=none;html=1;strokeColor=#000000;strokeWidth=5;fontSize=24;fontColor=#000000;spacing=2;rounded=1;jumpStyle=none;startArrow=none;" parent="1" source="10" edge="1">
                    <mxGeometry width="50" height="50" relative="1" as="geometry">
                        <mxPoint x="253" y="780" as="sourcePoint"/>
                        <mxPoint x="73" y="810" as="targetPoint"/>
                    </mxGeometry>
                </mxCell>
                <mxCell id="9" value="" style="endArrow=none;html=1;rounded=1;strokeColor=#000000;strokeWidth=1;fontSize=24;fontColor=#000000;jumpStyle=none;startArrow=none;" parent="1" source="12" edge="1">
                    <mxGeometry width="50" height="50" relative="1" as="geometry">
                        <mxPoint x="73" y="810" as="sourcePoint"/>
                        <mxPoint x="183" y="610" as="targetPoint"/>
                    </mxGeometry>
                </mxCell>
                <mxCell id="11" value="" style="endArrow=none;html=1;strokeColor=#000000;strokeWidth=5;fontSize=24;fontColor=#000000;spacing=2;rounded=1;jumpStyle=none;" parent="1" target="10" edge="1">
                    <mxGeometry width="50" height="50" relative="1" as="geometry">
                        <mxPoint x="253" y="780" as="sourcePoint"/>
                        <mxPoint x="73" y="810" as="targetPoint"/>
                    </mxGeometry>
                </mxCell>
                <mxCell id="10" value="" style="ellipse;whiteSpace=wrap;html=1;fillStyle=solid;fontSize=24;fontColor=#000000;strokeColor=#000000;" parent="1" vertex="1">
                    <mxGeometry x="247" y="774" width="10" height="10" as="geometry"/>
                </mxCell>
                <mxCell id="13" value="" style="endArrow=none;html=1;rounded=1;strokeColor=#000000;strokeWidth=1;fontSize=24;fontColor=#000000;jumpStyle=none;" parent="1" target="12" edge="1">
                    <mxGeometry width="50" height="50" relative="1" as="geometry">
                        <mxPoint x="73" y="810" as="sourcePoint"/>
                        <mxPoint x="183" y="610" as="targetPoint"/>
                    </mxGeometry>
                </mxCell>
                <mxCell id="12" value="" style="ellipse;whiteSpace=wrap;html=1;fillStyle=solid;fontSize=24;fontColor=#000000;strokeColor=#000000;" parent="1" vertex="1">
                    <mxGeometry x="69" y="805" width="10" height="10" as="geometry"/>
                </mxCell>
                <mxCell id="15" value="" style="endArrow=none;html=1;strokeColor=#000000;strokeWidth=1;" parent="1" target="14" edge="1">
                    <mxGeometry width="50" height="50" relative="1" as="geometry">
                        <mxPoint x="183" y="860" as="sourcePoint"/>
                        <mxPoint x="183" y="550" as="targetPoint"/>
                    </mxGeometry>
                </mxCell>
                <mxCell id="14" value="" style="ellipse;whiteSpace=wrap;html=1;fillStyle=solid;fontSize=24;fontColor=#000000;strokeColor=#000000;" parent="1" vertex="1">
                    <mxGeometry x="178" y="606" width="10" height="10" as="geometry"/>
                </mxCell>
                <mxCell id="16" value="`O`" style="text;html=1;strokeColor=none;fillColor=none;align=center;verticalAlign=middle;whiteSpace=wrap;rounded=0;fillStyle=hatch;fontColor=#000000;fontSize=24;" parent="1" vertex="1">
                    <mxGeometry x="166" y="578" width="60" height="30" as="geometry"/>
                </mxCell>
                <mxCell id="17" value="" style="endArrow=none;html=1;rounded=1;strokeColor=#000000;strokeWidth=1;fontSize=24;fontColor=#000000;jumpStyle=none;" parent="1" edge="1">
                    <mxGeometry width="50" height="50" relative="1" as="geometry">
                        <mxPoint x="183" y="658" as="sourcePoint"/>
                        <mxPoint x="202" y="653" as="targetPoint"/>
                        <Array as="points">
                            <mxPoint x="193" y="660"/>
                        </Array>
                    </mxGeometry>
                </mxCell>
                <mxCell id="18" value="" style="endArrow=none;html=1;rounded=1;strokeColor=#000000;strokeWidth=1;fontSize=24;fontColor=#000000;jumpStyle=none;" parent="1" edge="1">
                    <mxGeometry width="50" height="50" relative="1" as="geometry">
                        <mxPoint x="231" y="782" as="sourcePoint"/>
                        <mxPoint x="244" y="757" as="targetPoint"/>
                        <Array as="points">
                            <mxPoint x="232" y="769"/>
                        </Array>
                    </mxGeometry>
                </mxCell>
                <mxCell id="19" value="`\theta`" style="text;html=1;strokeColor=none;fillColor=none;align=center;verticalAlign=middle;whiteSpace=wrap;rounded=0;fillStyle=hatch;fontColor=#000000;fontSize=24;" parent="1" vertex="1">
                    <mxGeometry x="163" y="659" width="60" height="30" as="geometry"/>
                </mxCell>
                <mxCell id="20" value="`\phi`" style="text;html=1;strokeColor=none;fillColor=none;align=center;verticalAlign=middle;whiteSpace=wrap;rounded=0;fillStyle=hatch;fontColor=#000000;fontSize=24;" parent="1" vertex="1">
                    <mxGeometry x="188" y="748" width="60" height="30" as="geometry"/>
                </mxCell>
                <mxCell id="21" value="`A`" style="text;html=1;strokeColor=none;fillColor=none;align=center;verticalAlign=middle;whiteSpace=wrap;rounded=0;fillStyle=hatch;fontColor=#000000;fontSize=24;" parent="1" vertex="1">
                    <mxGeometry x="240" y="766" width="60" height="30" as="geometry"/>
                </mxCell>
                <mxCell id="22" value="`B`" style="text;html=1;strokeColor=none;fillColor=none;align=center;verticalAlign=middle;whiteSpace=wrap;rounded=0;fillStyle=hatch;fontColor=#000000;fontSize=24;" parent="1" vertex="1">
                    <mxGeometry x="27" y="805" width="60" height="30" as="geometry"/>
                </mxCell>
                <mxCell id="23" value="`l`" style="text;html=1;strokeColor=none;fillColor=none;align=center;verticalAlign=middle;whiteSpace=wrap;rounded=0;fillStyle=hatch;fontColor=#000000;fontSize=24;" parent="1" vertex="1">
                    <mxGeometry x="206" y="676" width="60" height="30" as="geometry"/>
                </mxCell>
                <mxCell id="24" value="`l`" style="text;html=1;strokeColor=none;fillColor=none;align=center;verticalAlign=middle;whiteSpace=wrap;rounded=0;fillStyle=hatch;fontColor=#000000;fontSize=24;" parent="1" vertex="1">
                    <mxGeometry x="133" y="798" width="60" height="30" as="geometry"/>
                </mxCell>
                <mxCell id="25" value="" style="endArrow=classic;html=1;strokeColor=#000000;" edge="1" parent="1">
                    <mxGeometry width="50" height="50" relative="1" as="geometry">
                        <mxPoint x="63" y="630" as="sourcePoint"/>
                        <mxPoint x="63" y="689" as="targetPoint"/>
                    </mxGeometry>
                </mxCell>
                <mxCell id="26" value="`g`" style="text;html=1;strokeColor=none;fillColor=none;align=center;verticalAlign=middle;whiteSpace=wrap;rounded=0;fillStyle=hatch;fontColor=#000000;fontSize=24;" vertex="1" parent="1">
                    <mxGeometry x="44" y="640" width="60" height="30" as="geometry"/>
                </mxCell>
            </root>
        </mxGraphModel>
    </diagram>
</mxfile>